# xmcd
#
# Track frame offsets:
#	180
#	14124
#	26841
#	38888
#	51465
#	66052
#	75463
#	89404
#	101022
#	118477
#	127813
#	143539
#
# Disc length: 2044 seconds
#
# Revision: 1
# Processed by: cddbd v1.5.2PL0 Copyright (c) Steve Scherf et al.
# Submitted via: audiograbber 1.83.01
#
DISCID=a607fa0c
DTITLE=Boule's Blues Project - Boule's Blues Project
DYEAR=1900
DGENRE=Pop
TTITLE0=Boule's Blues Project - Boule's blues
TTITLE1=Boule's Blues Project - Little by little
TTITLE2=Boule's Blues Project - It's over
TTITLE3=Boule's Blues Project - You don't love me
TTITLE4=Boule's Blues Project - You're a black magic woman
TTITLE5=Boule's Blues Project - Hit the highway
TTITLE6=Boule's Blues Project - Baby please don't go
TTITLE7=Boule's Blues Project - Top of the hill
TTITLE8=Boule's Blues Project - I love another woman
TTITLE9=Boule's Blues Project - The same way
TTITLE10=Boule's Blues Project - I'll going home
TTITLE11=Boule's Blues Project - Walk when i walk
EXTD=
EXTT0=
EXTT1=
EXTT2=
EXTT3=
EXTT4=
EXTT5=
EXTT6=
EXTT7=
EXTT8=
EXTT9=
EXTT10=
EXTT11=
PLAYORDER=
